<svg width="2555" height="1828" viewBox="0 0 2555 1828" fill="none" xmlns="http://www.w3.org/2000/svg">
<path d="M2312.46 1150.84C2323.85 1153.9 2332.74 1162.79 2335.8 1174.18L2407.91 1443.3C2410.96 1454.69 2407.7 1466.84 2399.37 1475.18L2202.36 1672.19C2194.02 1680.52 2181.87 1683.78 2170.48 1680.73L1901.36 1608.62C1889.97 1605.56 1881.08 1596.67 1878.02 1585.28L1805.91 1316.16C1802.86 1304.77 1806.12 1292.62 1814.45 1284.28L2011.46 1087.27C2019.8 1078.94 2031.95 1075.68 2043.34 1078.73L2312.46 1150.84Z" fill="#F58D83"/>
<path d="M2037.37 818.689C2027.8 822.169 2018.51 812.887 2021.99 803.312L2036.44 763.576C2038.81 757.042 2035.15 749.864 2028.47 747.944L1987.84 736.271C1978.04 733.458 1975.99 720.493 1984.43 714.792L2019.47 691.133C2025.23 687.243 2026.49 679.286 2022.22 673.805L1996.2 640.477C1989.94 632.446 1995.9 620.75 2006.08 621.1L2048.33 622.555C2055.28 622.795 2060.97 617.098 2060.74 610.149L2059.28 567.896C2058.93 557.715 2070.63 551.755 2078.66 558.024L2111.99 584.036C2117.47 588.314 2125.42 587.054 2129.31 581.292L2152.97 546.253C2158.67 537.81 2171.64 539.863 2174.45 549.655L2186.12 590.29C2188.04 596.972 2195.22 600.63 2201.76 598.255L2241.49 583.814C2251.07 580.335 2260.35 589.616 2256.87 599.191L2242.43 638.927C2240.05 645.461 2243.71 652.64 2250.39 654.559L2291.03 666.232C2300.82 669.045 2302.87 682.01 2294.43 687.711L2259.39 711.37C2253.63 715.26 2252.37 723.218 2256.65 728.698L2282.66 762.027C2288.93 770.058 2282.97 781.753 2272.79 781.403L2230.53 779.948C2223.59 779.709 2217.89 785.406 2218.13 792.354L2219.58 834.607C2219.93 844.789 2208.24 850.748 2200.21 844.48L2166.88 818.467C2161.4 814.189 2153.44 815.449 2149.55 821.211L2125.89 856.25C2120.19 864.693 2107.23 862.64 2104.41 852.848L2092.74 812.213C2090.82 805.531 2083.64 801.874 2077.11 804.248L2037.37 818.689Z" fill="#EF4680"/>
<path d="M475.825 1493.49C474.032 1500.18 465.667 1502.42 460.768 1497.52L236.974 1273.73C232.075 1268.83 234.317 1260.47 241.009 1258.67L546.716 1176.76C553.408 1174.97 559.532 1181.09 557.739 1187.78L475.825 1493.49Z" fill="#78CDD1"/>
<ellipse cx="507.066" cy="507.887" rx="353.705" ry="363.395" transform="rotate(-135 507.066 507.887)" fill="#FEC87F"/>
</svg>
